<svg width="54" height="54" viewBox="0 0 54 54" fill="none" xmlns="http://www.w3.org/2000/svg">
<path d="M39.0208 14.9792C32.3819 8.34026 21.6181 8.34026 14.9792 14.9792C8.34027 21.6181 8.34027 32.3819 14.9792 39.0208C21.6181 45.6597 32.3819 45.6597 39.0208 39.0208C45.6597 32.3819 45.6597 21.6181 39.0208 14.9792Z" fill="#0066CB" stroke="white" stroke-width="4"/>
<path d="M30.2537 32.8949C31.0226 31.7924 31.4345 30.4806 31.4337 29.1367C31.4339 27.7882 31.0164 26.4727 30.2386 25.3707L32.3143 23.2963L32.1713 23.5935C32.0619 23.8238 32.0052 24.0757 32.0055 24.3306L32.0055 24.9021C32.0035 25.5333 32.5139 26.0467 33.1455 26.0487C33.1772 26.0488 33.209 26.0476 33.2406 26.0451C33.8456 25.9749 34.2998 25.4593 34.2928 24.8507L34.2928 20.8504C34.2928 20.2192 33.7807 19.7075 33.1491 19.7075L29.1464 19.7075C28.5722 19.6933 28.0707 20.0933 27.9571 20.6561C27.8496 21.2781 28.2671 21.8694 28.8895 21.9768C28.9592 21.9888 29.0299 21.9944 29.1007 21.9933L29.6725 21.9933C29.9363 21.9935 30.1965 21.9329 30.433 21.8162L30.7189 21.6505L28.6204 23.7535C25.6435 21.6799 21.5483 22.4107 19.4735 25.3858C17.3986 28.3608 18.1299 32.4536 21.1067 34.5272C24.0836 36.6008 28.1788 35.87 30.2537 32.8949ZM20.5692 29.1367C20.5692 26.7696 22.4893 24.8507 24.8578 24.8507C27.2264 24.8507 29.1464 26.7696 29.1464 29.1367C29.1464 31.5038 27.2264 33.4227 24.8578 33.4227C22.4906 33.4196 20.5724 31.5025 20.5692 29.1367Z" fill="white"/>
</svg>
